<svg width="228" height="263" viewBox="0 0 228 263" fill="none" xmlns="http://www.w3.org/2000/svg">
<path fill-rule="evenodd" clip-rule="evenodd" d="M227.765 65.75L183.902 40.426L154.779 97.9679L204.491 174.078L227.765 135.168V65.75ZM227.765 142.96L206.924 177.803L221.855 200.662L227.765 197.25V142.96ZM202.207 177.896L152.694 102.089L100.228 205.753L135.935 249.74L133.681 251.569L171.044 229.998L202.207 177.896ZM178.163 225.887L204.64 181.621L218.385 202.665L178.163 225.887ZM113.882 0L180.433 38.4229L152.254 94.1007L119.334 43.6998L136.124 13.9838L132.641 12.0162L116.871 39.9283L97.1145 9.6809L113.882 0ZM117.118 47.6218L150.168 98.222L97.4668 202.351L57.508 153.126L117.118 47.6218ZM55.3937 156.869L95.4882 206.26L77.4247 241.951L24.565 211.433L55.3937 156.869ZM98.2497 209.662L80.894 243.954L113.882 263L132.719 252.125L98.2497 209.662ZM114.655 43.8503L93.6452 11.6839L0 65.75V82.2832L54.7992 149.789L114.655 43.8503ZM52.6849 153.532L0 88.6299V197.25L21.1008 209.433L52.6849 153.532Z" fill="#0B1B3A"/>
</svg>
