<svg width="1664" height="964" viewBox="0 0 1664 964" fill="none" xmlns="http://www.w3.org/2000/svg">
<g id="blue" filter="url(#filter0_f)">
<path fill-rule="evenodd" clip-rule="evenodd" d="M758.674 454.642C863.631 461.084 977.602 406.42 1066.76 446.846C1156.33 487.455 1158.85 578.556 1191.8 651.025C1224.85 723.717 1281.11 794.785 1258.98 869.599C1235.72 948.216 1157.01 1011 1070.33 1061.59C979.742 1114.47 875.005 1167.04 758.674 1161.61C644.607 1156.29 557.196 1091.07 475.025 1033.81C403.162 983.724 339.8 925.852 319.212 855.352C299.902 789.23 352.49 727.363 366.008 660.499C383.503 573.963 311.822 457.98 409.949 406.536C508.058 355.103 637.791 447.223 758.674 454.642Z" fill="#599BFF" fill-opacity="0.56"/>
</g>
<defs>
<filter id="filter0_f" x="-85" y="-9" width="1749" height="1571" filterUnits="userSpaceOnUse" color-interpolation-filters="sRGB">
<feFlood flood-opacity="0" result="BackgroundImageFix"/>
<feBlend mode="normal" in="SourceGraphic" in2="BackgroundImageFix" result="shape"/>
<feGaussianBlur stdDeviation="200" result="effect1_foregroundBlur"/>
</filter>
</defs>
</svg>
