<svg width="1356" height="852" viewBox="0 0 1356 852" fill="none" xmlns="http://www.w3.org/2000/svg">
<g id="pink" filter="url(#filter0_f)">
<path fill-rule="evenodd" clip-rule="evenodd" d="M273.357 -63.6097C415.143 -58.9145 569.107 -98.7598 689.552 -69.2927C810.545 -39.6916 813.954 26.7143 858.466 79.538C903.115 132.526 979.118 184.328 949.217 238.862C917.796 296.168 811.47 341.931 694.376 378.809C571.998 417.351 430.508 455.675 273.357 451.718C119.265 447.837 1.18119 400.298 -109.823 358.556C-206.903 322.051 -292.498 279.866 -320.311 228.477C-346.396 180.279 -275.355 135.183 -257.094 86.4439C-233.46 23.3658 -330.293 -61.1769 -197.734 -98.6752C-65.1992 -136.166 110.056 -69.0174 273.357 -63.6097Z" fill="#9780F3" fill-opacity="0.56"/>
</g>
<defs>
<filter id="filter0_f" x="-726" y="-510" width="2082" height="1362" filterUnits="userSpaceOnUse" color-interpolation-filters="sRGB">
<feFlood flood-opacity="0" result="BackgroundImageFix"/>
<feBlend mode="normal" in="SourceGraphic" in2="BackgroundImageFix" result="shape"/>
<feGaussianBlur stdDeviation="200" result="effect1_foregroundBlur"/>
</filter>
</defs>
</svg>
