<svg width="1561" height="798" viewBox="0 0 1561 798" fill="none" xmlns="http://www.w3.org/2000/svg">
<g id="red" filter="url(#filter0_f)">
<path fill-rule="evenodd" clip-rule="evenodd" d="M856.297 -288.256C964.24 -282.007 1081.45 -335.04 1173.15 -295.82C1265.26 -256.422 1267.86 -168.039 1301.75 -97.7323C1335.74 -27.208 1393.6 41.7392 1370.84 114.322C1346.91 190.594 1265.97 251.503 1176.82 300.585C1083.65 351.883 975.938 402.892 856.297 397.624C738.985 392.459 649.086 329.186 564.578 273.63C490.67 225.043 425.505 168.896 404.331 100.5C384.472 36.3504 438.556 -23.6711 452.459 -88.5408C470.452 -172.495 396.732 -285.018 497.65 -334.927C598.55 -384.827 731.974 -295.454 856.297 -288.256Z" fill="#FF1E1E" fill-opacity="0.56"/>
</g>
<defs>
<filter id="filter0_f" x="0" y="-750" width="1776" height="1548" filterUnits="userSpaceOnUse" color-interpolation-filters="sRGB">
<feFlood flood-opacity="0" result="BackgroundImageFix"/>
<feBlend mode="normal" in="SourceGraphic" in2="BackgroundImageFix" result="shape"/>
<feGaussianBlur stdDeviation="200" result="effect1_foregroundBlur"/>
</filter>
</defs>
</svg>
