<svg width="956" height="912" viewBox="0 0 956 912" fill="none" xmlns="http://www.w3.org/2000/svg">
<g id="yellow" filter="url(#filter0_f)">
<path fill-rule="evenodd" clip-rule="evenodd" d="M50.6741 453.572C155.631 458.994 269.602 412.98 358.762 447.009C448.327 481.192 450.85 557.878 483.8 618.879C516.852 680.07 573.113 739.891 550.979 802.867C527.72 869.045 449.012 921.892 362.333 964.478C271.742 1008.99 167.005 1053.24 50.6741 1048.67C-63.3927 1044.19 -150.804 989.294 -232.975 941.091C-304.838 898.934 -368.2 850.219 -388.788 790.875C-408.098 735.216 -355.51 683.138 -341.992 626.854C-324.497 554.011 -396.178 456.381 -298.051 413.078C-199.942 369.783 -70.2094 447.327 50.6741 453.572Z" fill="#FFF859" fill-opacity="0.5"/>
</g>
<defs>
<filter id="filter0_f" x="-793" y="0" width="1749" height="1449" filterUnits="userSpaceOnUse" color-interpolation-filters="sRGB">
<feFlood flood-opacity="0" result="BackgroundImageFix"/>
<feBlend mode="normal" in="SourceGraphic" in2="BackgroundImageFix" result="shape"/>
<feGaussianBlur stdDeviation="200" result="effect1_foregroundBlur"/>
</filter>
</defs>
</svg>
